<svg width="2" height="2" viewBox="0 0 2 2" fill="none" xmlns="http://www.w3.org/2000/svg">
<path d="M0.780543 1.54622C0.711122 1.54622 0.641003 1.53666 0.571744 1.51726C0.374228 1.46192 0.208521 1.33398 0.10525 1.15688C0.00192448 0.97984 -0.0264988 0.772813 0.0251906 0.574008C0.0770412 0.374665 0.203147 0.207938 0.380245 0.104613C0.565993 0.000481707 0.774418 -0.0266527 0.969569 0.0265412C1.1659 0.0801112 1.33059 0.21014 1.43332 0.39288C1.64637 0.759649 1.52284 1.23093 1.15757 1.44397C1.04151 1.51167 0.912238 1.54622 0.780543 1.54622ZM0.771301 0.322439C0.692853 0.322439 0.613547 0.343448 0.540258 0.384498C0.440264 0.44285 0.367296 0.539459 0.33726 0.655142C0.307117 0.770933 0.323666 0.891451 0.383737 0.994454C0.444615 1.09875 0.542245 1.17419 0.65868 1.2068C0.774309 1.2392 0.893861 1.22453 0.995144 1.16553C1.20727 1.04179 1.27858 0.767494 1.15414 0.554128C1.15365 0.553322 1.15317 0.552516 1.15279 0.55171C1.09267 0.444355 0.997455 0.368325 0.884781 0.337644C0.847707 0.327435 0.809611 0.322439 0.771301 0.322439Z" fill="black"/>
</svg>
