<svg width="18" height="24" viewBox="0 0 18 24" fill="none" xmlns="http://www.w3.org/2000/svg">
<path d="M14.4023 16.2301C15.4434 15.8137 16.1842 14.7851 16.1842 13.5825V13.0933C16.1842 12.488 16.4162 11.9191 16.8387 11.4913L17.1805 11.1443C18.2732 10.035 18.2732 8.22811 17.1805 7.11896L16.8387 6.77195C16.4173 6.34413 16.1842 5.77526 16.1842 5.16997V4.68073C16.1842 3.11062 14.9279 1.83519 13.3814 1.83519H12.9017C12.3055 1.83519 11.7452 1.59968 11.3238 1.17075L10.9819 0.823735C10.4518 0.294676 9.74918 0 9.00057 0C8.25197 0 7.54927 0.296948 7.01805 0.832851L6.67624 1.17987C6.25485 1.60768 5.69451 1.84431 5.0983 1.84431H4.61864C3.07209 1.84431 1.81579 3.11974 1.81579 4.68985V5.17909C1.81579 5.78437 1.58381 6.35325 1.16132 6.78106L0.819509 7.12808C-0.27317 8.2374 -0.27317 10.0443 0.819509 11.1534L1.16132 11.5004C1.58271 11.9282 1.81579 12.4971 1.81579 13.1024V13.5916C1.81579 14.7942 2.55544 15.8228 3.59769 16.2392L0.757855 21.2318C0.70294 21.3274 0.706302 21.4446 0.76682 21.5379C0.827339 21.6312 0.932682 21.6801 1.03915 21.6665L3.67614 21.3433L4.71727 23.8225C4.75985 23.9249 4.85511 23.9909 4.96382 24H4.98063C5.08374 24 5.17899 23.9442 5.23054 23.8544L8.43232 18.2247C8.61612 18.2623 8.80552 18.2828 8.99717 18.2828C9.18993 18.2828 9.3782 18.2623 9.56201 18.2247L12.7638 23.8544C12.8153 23.9442 12.9106 24 13.0137 24H13.0305C13.1392 23.9943 13.2345 23.9238 13.2771 23.8225L14.3182 21.3433L16.9552 21.6665C17.0617 21.6812 17.1704 21.6289 17.2275 21.5379C17.288 21.4446 17.2903 21.3285 17.2365 21.2318L14.4023 16.2301ZM5.02104 23.0475L4.12001 20.9039C4.0707 20.7845 3.95079 20.7117 3.8219 20.7287L1.54352 21.0086L4.17157 16.3894C4.31838 16.4122 4.46742 16.4304 4.62208 16.4304H5.10175C5.69795 16.4304 6.25829 16.6659 6.67969 17.0948L7.02149 17.4418C7.27141 17.6978 7.5639 17.8958 7.87883 18.0357L5.02104 23.0475ZM8.36971 17.5953C8.35514 17.5918 8.34394 17.5839 8.33273 17.5839C7.99428 17.4758 7.68385 17.2869 7.42608 17.0241L7.08427 16.6771C6.55305 16.1378 5.85037 15.8442 5.10174 15.8442H4.62208C3.39155 15.8442 2.39303 14.8282 2.39303 13.5812V13.092C2.39303 12.3319 2.10053 11.6186 1.57267 11.0793L1.23086 10.7322C0.361216 9.84935 0.361216 8.41349 1.23086 7.53179L1.57267 7.18477C2.10389 6.64546 2.39303 5.93209 2.39303 5.17205V4.68281C2.39303 3.43353 3.39381 2.41981 4.62208 2.41981H5.10174C5.85037 2.41981 6.55305 2.12286 7.08427 1.58695L7.42608 1.23994C7.84747 0.812124 8.40781 0.575498 9.00401 0.575498C9.60022 0.575498 10.1606 0.811014 10.582 1.23994L10.9238 1.58695C11.455 2.12627 12.1577 2.41981 12.9063 2.41981H13.3859C14.6165 2.41981 15.615 3.43584 15.615 4.68281V5.17205C15.615 5.93209 15.9075 6.64546 16.4354 7.18477L16.7772 7.53179C17.6468 8.41468 17.6468 9.85054 16.7772 10.7322L16.4354 11.0793C15.9041 11.6186 15.615 12.3319 15.615 13.092V13.5812C15.615 14.8305 14.6142 15.8442 13.3859 15.8442H12.9063C12.1577 15.8442 11.455 16.1412 10.9238 16.6771L10.582 17.0241C10.3242 17.2858 10.0138 17.4758 9.6753 17.5839C9.66073 17.5873 9.64952 17.593 9.63495 17.5953C9.43099 17.6567 9.22142 17.6886 9.00401 17.6886C8.78211 17.6886 8.57031 17.6567 8.36971 17.5953ZM14.1794 20.7299C14.0472 20.7128 13.9295 20.7856 13.8813 20.9051L12.9802 23.0487L10.1258 18.0333C10.4419 17.8934 10.7344 17.6954 10.9832 17.4394L11.325 17.0924C11.7464 16.6646 12.3067 16.4279 12.9029 16.4279H13.3826C13.535 16.4279 13.6863 16.4131 13.8331 16.387L16.4612 21.0062L14.1794 20.7299ZM11.5402 12.9498C11.5828 12.9726 11.6321 12.9851 11.678 12.9851C11.7441 12.9851 11.8103 12.9623 11.8618 12.918C11.9537 12.8417 11.9884 12.7166 11.9503 12.604L11.0728 9.90064L13.182 8.40107C13.2761 8.33394 13.3221 8.21789 13.2997 8.10412C13.2773 7.99035 13.1876 7.90046 13.0755 7.87657L10.4565 7.32931L9.25844 4.86378C9.16094 4.66581 8.83931 4.66581 8.74515 4.86378L7.546 7.33047L4.92694 7.87774C4.81487 7.90049 4.72633 7.99151 4.7028 8.10529C4.68038 8.21907 4.72521 8.33512 4.82047 8.40224L6.92963 9.9018L6.05212 12.6051C6.01514 12.7189 6.04876 12.844 6.14066 12.9191C6.23255 12.9954 6.35919 13.009 6.4623 12.951L9.00069 11.5345L11.5402 12.9498ZM6.82328 12.0851L7.54052 9.88012C7.58087 9.75724 7.53716 9.62413 7.43181 9.55131L5.69361 8.31683L7.79939 7.87652C7.88568 7.85946 7.95965 7.80029 7.99775 7.71951L9.00077 5.65104L10.0049 7.71607C10.0453 7.79799 10.117 7.85261 10.2033 7.87309L12.3091 8.3134L10.5709 9.54788C10.4677 9.62069 10.424 9.75495 10.4621 9.87669L11.1794 12.0817L9.13972 10.9462C9.09713 10.9234 9.04782 10.9109 9.00187 10.9109C8.95592 10.9109 8.90774 10.9223 8.86403 10.9462L6.82328 12.0851Z" fill="black"/>
</svg>
